<svg xmlns="http://www.w3.org/2000/svg" width="157.281" height="31.95" viewBox="0 0 157.281 31.95"><defs><style>.a{fill:#fff;opacity:0;}.b{fill:#ff3400;}.c{fill:#2b2828;}</style></defs><path class="a" d="M0,0H157.281V31.569H0Z" transform="translate(0 0.152)"/><path class="b" d="M806.339,474.623a6.9,6.9,0,1,0,8.421,4.941A6.9,6.9,0,0,0,806.339,474.623Z" transform="translate(-789.702 -474.022)"/><path class="b" d="M843.154,473.73A15.975,15.975,0,1,0,859.129,489.7,15.976,15.976,0,0,0,843.154,473.73Zm0,23.277a7.3,7.3,0,1,1,7.3-7.3A7.3,7.3,0,0,1,843.154,497.007Z" transform="translate(-801.046 -473.73)"/><path class="b" d="M786.9,489.776a3.065,3.065,0,1,0-3.564,2.477A3.067,3.067,0,0,0,786.9,489.776Z" transform="translate(-780.822 -479.163)"/><path class="b" d="M796.258,499.684a5.585,5.585,0,1,0,4.51,6.484A5.594,5.594,0,0,0,796.258,499.684Z" transform="translate(-784.685 -485.017)"/><g transform="translate(62.748 5.457)"><path class="c" d="M932.043,491.78a6.138,6.138,0,0,0-1.762,1.361v-1.724h-3.644v13.073h3.644v-5.66a5.232,5.232,0,0,1,.8-3.052,2.757,2.757,0,0,1,2.427-1.155h.707l-.027-3.424A4.794,4.794,0,0,0,932.043,491.78Z" transform="translate(-907.185 -486.808)"/><path class="c" d="M951.39,492.509a4.974,4.974,0,0,0-3.428-1.31,6.259,6.259,0,0,0-4.447,1.823,6.393,6.393,0,0,0-1.92,4.873,6.661,6.661,0,0,0,1.87,4.921,6.01,6.01,0,0,0,4.374,1.87,5.5,5.5,0,0,0,3.551-1.26v1.065h3.67V491.417h-3.67Zm-.827,8.082a2.731,2.731,0,0,1-2.139,1.009,2.949,2.949,0,0,1-2.212-1.009,3.659,3.659,0,0,1-.948-2.611,3.9,3.9,0,0,1,.925-2.661,2.841,2.841,0,0,1,2.213-1.056,2.689,2.689,0,0,1,2.162,1.071,4.038,4.038,0,0,1,.876,2.657A3.817,3.817,0,0,1,950.563,500.591Z" transform="translate(-913.711 -486.808)"/><path class="c" d="M1024.084,491.2a5.108,5.108,0,0,0-3.719,1.675v-1.457h-3.646v13.073h3.646V497.2a3.1,3.1,0,0,1,.813-2.323,2.666,2.666,0,0,1,1.909-.786c1.475,0,2.212,1,2.212,3.01v7.388h3.643v-7.945a5.4,5.4,0,0,0-1.395-3.89A4.607,4.607,0,0,0,1024.084,491.2Z" transform="translate(-946.485 -486.808)"/><path class="c" d="M1049.9,497.659a9.332,9.332,0,0,0-1.252-.641c-.347-.135-.934-.335-1.765-.6a10.888,10.888,0,0,1-1.77-.676.9.9,0,0,1-.536-.8c0-.619.563-.925,1.687-.925a5.969,5.969,0,0,1,3.393,1.165l1.359-2.429a8.229,8.229,0,0,0-4.617-1.555,5.943,5.943,0,0,0-3.767,1.142,3.582,3.582,0,0,0-1.458,2.951,3.023,3.023,0,0,0,1.484,2.737,9.464,9.464,0,0,0,1.3.7c.382.163.931.359,1.653.582a6.546,6.546,0,0,1,1.653.731,1.07,1.07,0,0,1,.569.848.854.854,0,0,1-.414.744,1.979,1.979,0,0,1-1.117.279,6.987,6.987,0,0,1-4.351-1.579l-1.6,2.285a8.941,8.941,0,0,0,2.841,1.542,9.664,9.664,0,0,0,3.039.522,5.5,5.5,0,0,0,3.609-1.167,3.8,3.8,0,0,0,1.422-3.1A2.982,2.982,0,0,0,1049.9,497.659Z" transform="translate(-956.794 -486.808)"/><path class="c" d="M910.418,497.47a3.251,3.251,0,0,1-.656,2.174,2.408,2.408,0,0,1-1.933.767,1.98,1.98,0,0,1-1.8-.8,5.3,5.3,0,0,1-.522-2.746v-5.3h-3.67v6.464q0,5.638,5.276,5.637a5.908,5.908,0,0,0,3.471-1.067,3.652,3.652,0,0,1,.025.438,4.045,4.045,0,0,1-.826,2.611,2.688,2.688,0,0,1-2.21,1.032,2.9,2.9,0,0,1-2.266-1.059l-2.153,2.584a5.548,5.548,0,0,0,.591.468,6.785,6.785,0,0,0,3.876,1.118,6.123,6.123,0,0,0,4.654-1.918,7.489,7.489,0,0,0,1.811-5.349V491.537h-3.669Z" transform="translate(-896.366 -486.956)"/><path class="c" d="M978.326,500.53a3.775,3.775,0,1,1-.116-5.186,7.193,7.193,0,0,1,1.806-2.787,6.967,6.967,0,0,0-3.569-1.548,7.039,7.039,0,1,0,3.784,12.234A7.311,7.311,0,0,1,978.326,500.53Z" transform="translate(-925.456 -486.701)"/><path class="c" d="M995.839,490.762a7.039,7.039,0,1,0,7.038,7.038A7.047,7.047,0,0,0,995.839,490.762Zm0,10.8A3.765,3.765,0,1,1,999.6,497.8,3.77,3.77,0,0,1,995.839,501.565Z" transform="translate(-934.303 -486.618)"/><rect class="c" width="3.789" height="17.683"/></g></svg>
